<?xml version="1.0" encoding="UTF-8" standalone="no"?>
<!-- Created with Inkscape (http://www.inkscape.org/) -->

<svg
   width="120.42235mm"
   height="105.8333mm"
   viewBox="0 0 120.42235 105.8333"
   version="1.1"
   id="svg1"
   xml:space="preserve"
   xmlns="http://www.w3.org/2000/svg"
   xmlns:svg="http://www.w3.org/2000/svg"><defs
     id="defs1" /><g
     id="layer1"
     transform="translate(315.43908,-221.63703)"><path
       style="fill:#5e1b68;stroke-width:0.889097"
       d="m -292.3065,326.99533 c -0.5968,-0.29541 -1.15201,-0.81822 -1.47025,-1.38447 -0.48568,-0.86414 -0.51135,-1.19457 -0.51135,-6.58236 v -5.67254 l -9.11556,-0.005 c -8.45178,-0.004 -9.18735,-0.0378 -10.10152,-0.4528 -1.64249,-0.74569 -2.42025,-2.89912 -1.61177,-4.46255 0.18852,-0.36456 1.33156,-1.65606 2.54008,-2.87 9.03801,-9.07855 15.6169,-24.56663 17.72464,-41.72753 0.33034,-2.68951 0.42236,-5.96744 0.50189,-17.87749 0.0945,-14.1564 0.11148,-14.60921 0.57803,-15.43931 0.26435,-0.47035 0.87953,-1.07937 1.36708,-1.35339 0.86144,-0.48415 1.14942,-0.49821 10.20522,-0.49821 h 9.31876 v -2.14395 c 0,-2.53348 0.46182,-3.61636 1.88288,-4.41505 1.13258,-0.63655 2.16751,-0.63168 3.31917,0.0156 1.35835,0.76344 1.85516,1.96866 1.85516,4.50053 v 2.04289 h 8.8215 8.82151 v -2.14395 c 0,-2.53348 0.46182,-3.61636 1.88287,-4.41505 1.13258,-0.63655 2.16752,-0.63168 3.31917,0.0156 1.35836,0.76344 1.85517,1.96867 1.85517,4.50053 v 2.04289 h 8.93912 8.93913 v -2.14395 c 0,-2.53348 0.46181,-3.61636 1.88287,-4.41504 1.13258,-0.63655 2.16751,-0.63169 3.31917,0.0155 1.35835,0.76345 1.85516,1.96867 1.85516,4.50053 v 2.0429 h 9.20115 c 9.02379,0 9.21876,0.01 10.1153,0.51378 0.58262,0.32744 1.0848,0.86628 1.38466,1.48571 0.46564,0.96187 0.4705,1.45202 0.4705,47.40093 0,46.39978 -3.1e-4,46.42964 -0.48462,47.4301 -0.35185,0.72683 -0.75888,1.13386 -1.48571,1.48572 -1.00052,0.48434 -1.0277,0.48462 -47.6808,0.48443 -46.34289,-1.9e-4 -46.68662,-0.004 -47.63861,-0.47485 z m 90.23254,-21.803 v -15.22082 l -1.99079,3.98811 c -3.27351,6.55774 -6.90566,11.9255 -10.94742,16.17858 -1.31865,1.38761 -2.62052,2.52705 -3.17574,2.77953 -0.89571,0.40732 -2.57841,0.42815 -34.99198,0.43306 l -34.051,0.005 v 3.5286 3.5286 h 42.57846 42.57847 z m -17.43017,-0.55212 c 7.97401,-8.90632 13.68563,-21.49533 16.11256,-35.51383 0.35744,-2.06463 0.94682,-7.19267 1.19587,-10.40495 l 0.14136,-1.82311 h -42.57387 -42.57386 l -0.12247,0.99977 c -0.0674,0.54988 -0.18692,2.05836 -0.2657,3.35217 -0.95271,15.64859 -6.88972,32.59015 -15.31281,43.69587 l -1.0259,1.35262 h 41.46994 41.46994 z m 17.43017,-61.8563 v -7.0572 h -7.05721 -7.0572 v 2.04289 c 0,2.64108 -0.51507,3.82521 -1.97034,4.52969 -1.25169,0.60594 -1.8591,0.60872 -3.08737,0.0141 -1.51218,-0.73203 -1.99949,-1.81482 -1.99949,-4.44276 v -2.14395 h -8.93913 -8.93912 v 2.0429 c 0,2.64108 -0.51508,3.82521 -1.97034,4.52969 -1.2517,0.60594 -1.8591,0.60872 -3.08737,0.0141 -1.51218,-0.73202 -1.9995,-1.81481 -1.9995,-4.44275 v -2.14395 h -8.82151 -8.8215 v 2.0429 c 0,2.64108 -0.51508,3.82521 -1.97034,4.52969 -1.25169,0.60593 -1.8591,0.60872 -3.08737,0.0141 -1.51218,-0.73203 -1.9995,-1.81481 -1.9995,-4.44275 v -2.14395 h -7.17482 -7.17482 v 7.0572 7.05721 h 42.57846 42.57847 z"
       id="path2" /></g></svg>
