<?xml version="1.0" encoding="UTF-8" standalone="no"?>
<!-- Created with Inkscape (http://www.inkscape.org/) -->

<svg
   width="105.93084mm"
   height="105.83334mm"
   viewBox="0 0 105.93084 105.83334"
   version="1.1"
   id="svg1"
   xml:space="preserve"
   xmlns="http://www.w3.org/2000/svg"
   xmlns:svg="http://www.w3.org/2000/svg"><defs
     id="defs1" /><g
     id="layer1"
     transform="translate(456.51044,-80.626443)"><path
       style="fill:#5e1b68;stroke-width:0.782493"
       d="m -408.43568,186.27164 c -9.95889,-0.95896 -19.18864,-4.5438 -27.1979,-10.5637 -2.46344,-1.85157 -6.61952,-5.84451 -8.80427,-8.45868 -6.00938,-7.19059 -10.0773,-16.31294 -11.58649,-25.98286 -0.64813,-4.15278 -0.64813,-11.37484 0,-15.52761 1.40495,-9.00204 4.79419,-17.05462 10.21186,-24.26263 1.85156,-2.463451 5.84449,-6.619516 8.45868,-8.804269 5.78738,-4.836687 13.46636,-8.715061 21.01402,-10.613406 4.09047,-1.028807 7.47056,-1.418394 12.42208,-1.431768 8.86302,-0.02394 15.71298,1.531841 23.60197,5.360527 7.99555,3.880401 15.12299,10.003633 20.35099,17.483636 l 1.07711,1.54108 v -6.123964 -6.123959 l 0.57645,-1.103465 c 0.46666,-0.893287 0.78662,-1.213255 1.67992,-1.67992 1.4095,-0.736333 2.35914,-0.736333 3.76863,0 0.89982,0.470068 1.21232,0.784811 1.69324,1.705407 l 0.58978,1.128958 -0.0716,7.662913 -0.0716,7.66291 -0.55558,1.65628 c -1.58728,4.73198 -5.50906,8.12694 -10.39047,8.99467 -0.70624,0.12554 -4.27074,0.21752 -8.38491,0.21635 -7.12939,-0.002 -7.16049,-0.004 -8.23004,-0.50189 -1.56629,-0.72925 -2.23895,-1.82187 -2.23895,-3.63678 0,-1.1546 0.0917,-1.51444 0.56958,-2.23665 0.31326,-0.47338 0.96542,-1.07215 1.44924,-1.33061 0.84417,-0.45095 1.13157,-0.4741 7.12233,-0.57344 l 6.24268,-0.10351 -1.27385,-1.9027 c -6.2345,-9.312344 -15.54587,-15.861283 -26.42855,-18.587928 -3.93114,-0.984948 -6.22698,-1.24555 -10.86932,-1.233789 -3.03978,0.0078 -4.99555,0.115981 -6.50112,0.359924 -9.79776,1.58753 -18.03808,5.778605 -24.94834,12.688853 -6.90975,6.90976 -11.09383,15.13542 -12.69026,24.94834 -0.48594,2.98695 -0.48594,10.22231 0,13.20927 1.59643,9.81293 5.78051,18.03858 12.69026,24.94834 6.87821,6.87821 15.05494,11.05187 24.84087,12.67954 1.45246,0.24159 3.53905,0.35276 7.12618,0.37969 5.6281,0.0422 5.80461,0.0786 6.99974,1.43973 1.60552,1.82858 1.26288,4.57894 -0.74736,5.99913 -0.74113,0.52359 -1.12017,0.62445 -2.88006,0.76634 -2.52326,0.20341 -6.21539,0.1827 -8.61493,-0.0483 z m 23.6687,-4.39149 c -1.58469,-0.74087 -2.68492,-2.30359 -2.68943,-3.81997 -0.002,-0.88966 0.50259,-2.07275 1.19941,-2.80865 0.64897,-0.68536 5.01344,-2.93771 6.08035,-3.13787 1.14964,-0.21568 2.43471,0.24284 3.40774,1.21587 1.10648,1.10648 1.46304,2.2883 1.12879,3.74147 -0.38652,1.6805 -0.97539,2.23411 -3.97165,3.73384 -2.8467,1.42486 -3.92598,1.64999 -5.15521,1.07531 z m 16.25223,-12.33075 c -1.92493,-0.8884 -2.82626,-2.99778 -2.14181,-5.01246 0.25843,-0.7607 2.60655,-3.82371 3.72844,-4.86359 0.96387,-0.89339 1.83307,-1.1877 3.17826,-1.07614 1.20309,0.0998 2.20186,0.71055 3.07563,1.88086 0.55741,0.74659 0.69741,2.69162 0.26775,3.71994 -0.54267,1.29877 -3.5915,4.84591 -4.57395,5.3215 -1.07772,0.52171 -2.44366,0.53327 -3.53432,0.0299 z m -53.20793,-15.94168 c -2.01139,-0.9283 -2.9215,-3.29697 -2.05951,-5.36001 0.21609,-0.51718 2.89542,-3.34893 8.17786,-8.64306 l 7.8565,-7.87389 V 115.66348 99.596183 l 0.57645,-1.103464 c 0.46666,-0.893286 0.78663,-1.213256 1.67992,-1.679919 1.4095,-0.736335 2.35914,-0.736335 3.76864,0 0.89329,0.466663 1.21326,0.786633 1.67992,1.679919 l 0.57646,1.103464 v 17.326627 17.32662 l -0.51092,1.02407 c -0.67835,1.35966 -17.20965,17.91772 -18.37436,18.4041 -1.02258,0.42703 -2.35413,0.39942 -3.37096,-0.0699 z m 63.98705,-1.69826 c -1.76683,-0.42784 -3.01644,-2.0259 -3.014,-3.85443 0.002,-1.41986 1.14624,-5.59462 1.78699,-6.51924 0.6954,-1.00345 1.96699,-1.61512 3.35765,-1.61512 2.35432,0 4.00313,1.65665 3.9848,4.00374 -0.009,1.12878 -0.98578,5.00348 -1.52397,6.04423 -0.79387,1.53517 -2.78717,2.37774 -4.59147,1.94082 z"
       id="path3" /></g></svg>
