<?xml version="1.0" encoding="UTF-8" standalone="no"?>
<!-- Created with Inkscape (http://www.inkscape.org/) -->

<svg
   width="73.496002mm"
   height="105.83334mm"
   viewBox="0 0 73.496002 105.83334"
   version="1.1"
   id="svg1"
   xml:space="preserve"
   xmlns="http://www.w3.org/2000/svg"
   xmlns:svg="http://www.w3.org/2000/svg"><defs
     id="defs1" /><g
     id="layer1"
     transform="translate(168.2156,-40.014371)"><path
       style="fill:#5e1b68;stroke-width:0.87092"
       d="m -148.01319,145.45541 c -1.52317,-0.54357 -2.71072,-1.4801 -3.67031,-2.89449 -0.88446,-1.30365 -1.21294,-2.3755 -1.21468,-3.96352 -8.2e-4,-0.74657 1.4246,-6.95563 3.91462,-17.05189 2.15374,-8.7328 3.91653,-16.00176 3.91732,-16.15326 8.7e-4,-0.20767 -2.16777,-0.29274 -8.81256,-0.34565 l -8.81398,-0.0702 -1.30318,-0.61095 c -1.54372,-0.72373 -2.93731,-2.08727 -3.67688,-3.59759 -0.42945,-0.877007 -0.53598,-1.479014 -0.54235,-3.064968 -0.007,-1.75669 0.068,-2.117538 0.68336,-3.283143 0.45585,-0.863518 8.16151,-9.930057 22.62439,-26.620007 12.06321,-13.920764 22.32365,-25.653375 22.80096,-26.07247 1.39937,-1.22866 2.71607,-1.709199 4.69338,-1.712883 2.11097,-0.0044 3.85743,0.710715 5.25423,2.150024 1.51173,1.557736 1.99497,2.798928 1.98134,5.089031 -0.0104,1.74103 -0.43858,3.674125 -3.85384,17.397538 -2.11321,8.491385 -3.84227,15.56284 -3.84238,15.714336 -1.6e-4,0.207645 2.16985,0.292743 8.81378,0.345651 l 8.81398,0.0702 1.287301,0.603687 c 1.569092,0.735832 2.768441,1.897579 3.607258,3.494159 0.552516,1.051645 0.631579,1.461569 0.631829,3.27594 2.44e-4,1.76863 -0.08424,2.232587 -0.573955,3.152148 -0.507931,0.953752 -43.430493,50.817167 -45.315963,52.643837 -1.80104,1.74488 -4.94165,2.38307 -7.40367,1.50447 z m 24.58077,-33.85339 c 10.66138,-12.324774 19.38432,-22.456084 19.38432,-22.514017 0,-0.05792 -3.81075,-0.136021 -8.46833,-0.17354 l -8.46835,-0.06819 -1.30436,-0.640544 c -2.47745,-1.216632 -3.90129,-3.382263 -4.04816,-6.157171 -0.0851,-1.608634 0.15711,-2.732809 3.50059,-16.245381 1.97563,-7.984431 3.64634,-14.67269 3.71269,-14.862794 0.0664,-0.190113 -0.13147,-0.08639 -0.43959,0.230428 -0.89845,0.92389 -39.32706,45.383784 -39.32706,45.499355 0,0.05765 3.81075,0.135463 8.46834,0.172974 l 8.46834,0.06819 1.30436,0.640544 c 2.42116,1.188989 3.88403,3.370406 4.0593,6.053206 0.098,1.50068 -0.16828,2.73692 -3.49975,16.24539 -1.98323,8.04161 -3.65974,14.77665 -3.72558,14.96675 -0.1968,0.56819 0.24683,0.0629 20.38324,-23.2152 z"
       id="path1" /></g></svg>
