<?xml version="1.0" encoding="UTF-8" standalone="no"?>
<!-- Created with Inkscape (http://www.inkscape.org/) -->

<svg
   width="889.6123"
   height="200.44458"
   viewBox="0 0 235.37658 53.034298"
   version="1.1"
   id="svg1"
   xml:space="preserve"
   xmlns="http://www.w3.org/2000/svg"
   xmlns:svg="http://www.w3.org/2000/svg"><defs
     id="defs1" /><g
     id="layer1"
     transform="translate(-376.08334,-621.60171)"><path
       d="m 386.31562,622.05264 v 51.68155 h -10.23226 v -51.68155 z m 7.2146,51.68155 v -36.628 h 10.23226 v 36.628 z m 5.09879,-41.24119 q -2.53204,0 -4.19695,-1.52617 -1.66492,-1.56085 -1.66492,-3.91947 0,-2.35862 1.66492,-3.88479 1.66491,-1.56086 4.16226,-1.56086 2.53206,0 4.19697,1.56086 1.66491,1.52617 1.66491,3.88479 0,2.35862 -1.66491,3.91947 -1.66491,1.52617 -4.16228,1.52617 z m 22.58034,-10.44036 v 51.68155 h -10.23226 v -51.68155 z m 18.41806,52.30591 q -3.64199,0 -6.48621,-1.21401 -2.84422,-1.214 -4.47444,-3.64199 -1.63023,-2.46268 -1.63023,-6.10467 0,-3.08701 1.14462,-5.13347 1.14464,-2.08113 3.12172,-3.32981 2.01175,-1.28338 4.5785,-1.94239 2.60142,-0.65903 5.44564,-0.90184 3.3645,-0.34685 5.34158,-0.65902 1.97708,-0.31217 2.84422,-0.90183 0.86715,-0.58965 0.86715,-1.76897 v -0.24279 q 0,-1.35274 -0.72841,-2.35863 -0.7284,-1.04057 -2.08113,-1.63022 -1.31805,-0.58965 -3.19108,-0.58965 -1.87303,0 -3.32982,0.58965 -1.42211,0.58965 -2.25456,1.66491 -0.83246,1.07525 -0.9712,2.49737 h -9.60792 q 0.2428,-3.78073 2.21988,-6.55558 2.01177,-2.77486 5.61908,-4.26634 3.6073,-1.52616 8.63671,-1.52616 3.74604,0 6.69432,0.86713 2.94828,0.83246 4.96004,2.46268 2.04646,1.63023 3.08702,3.95416 1.04057,2.32394 1.04057,5.27221 v 24.8349 h -9.98945 v -5.16815 h -0.13874 q -0.9712,1.80366 -2.39332,3.08702 -1.4221,1.28337 -3.46856,2.01177 -2.04644,0.69372 -4.85598,0.69372 z m 2.84423,-7.11056 q 2.46267,0 4.23164,-0.90183 1.80365,-0.90182 2.77485,-2.46268 0.97119,-1.56085 0.97119,-3.53793 v -3.67668 q -0.45091,0.24281 -1.17931,0.4856 -0.72839,0.20812 -1.69959,0.41624 -0.9712,0.17342 -2.11583,0.38153 -1.14463,0.20812 -2.35862,0.38155 -1.76896,0.27748 -3.19108,0.86714 -1.4221,0.55496 -2.25456,1.52616 -0.83245,0.93652 -0.83245,2.39331 0,1.28337 0.69371,2.21988 0.69372,0.93651 1.97708,1.42211 1.28337,0.4856 2.98297,0.4856 z m 36.41989,7.11056 q -3.642,0 -6.48621,-1.21401 -2.84422,-1.214 -4.47444,-3.64199 -1.63023,-2.46268 -1.63023,-6.10467 0,-3.08701 1.14463,-5.13347 1.14462,-2.08113 3.1217,-3.32981 2.01177,-1.28338 4.5785,-1.94239 2.60142,-0.65903 5.44565,-0.90184 3.36451,-0.34685 5.34159,-0.65902 1.97706,-0.31217 2.84421,-0.90183 0.86714,-0.58965 0.86714,-1.76897 v -0.24279 q 0,-1.35274 -0.7284,-2.35863 -0.72839,-1.04057 -2.08113,-1.63022 -1.31806,-0.58965 -3.19109,-0.58965 -1.87301,0 -3.32981,0.58965 -1.42211,0.58965 -2.25457,1.66491 -0.83246,1.07525 -0.9712,2.49737 h -9.6079 q 0.24279,-3.78073 2.21987,-6.55558 2.01177,-2.77486 5.61907,-4.26634 3.6073,-1.52616 8.63673,-1.52616 3.74604,0 6.69432,0.86713 2.94827,0.83246 4.96004,2.46268 2.04645,1.63023 3.08702,3.95416 1.04057,2.32394 1.04057,5.27221 v 24.8349 h -9.98947 v -5.16815 h -0.13874 q -0.97119,1.80366 -2.3933,3.08702 -1.42212,1.28337 -3.46856,2.01177 -2.04646,0.69372 -4.85599,0.69372 z m 2.84422,-7.11056 q 2.46268,0 4.23164,-0.90183 1.80365,-0.90182 2.77485,-2.46268 0.97121,-1.56085 0.97121,-3.53793 v -3.67668 q -0.45092,0.24281 -1.17932,0.4856 -0.7284,0.20812 -1.69959,0.41624 -0.9712,0.17342 -2.11583,0.38153 -1.14462,0.20812 -2.35862,0.38155 -1.76896,0.27748 -3.19107,0.86714 -1.42212,0.55496 -2.25457,1.52616 -0.83246,0.93652 -0.83246,2.39331 0,1.28337 0.69371,2.21988 0.69372,0.93651 1.97709,1.42211 1.28336,0.4856 2.98296,0.4856 z m 40.44343,7.38804 q -4.75193,0 -8.4633,-1.4568 -3.71135,-1.49148 -5.93124,-4.26633 -2.21987,-2.77485 -2.56673,-6.69433 h 10.05883 q 0.27748,2.39331 2.01177,3.74606 1.73427,1.35273 4.71724,1.35273 2.84422,0 4.43976,-1.07525 1.63022,-1.07526 1.63022,-2.77485 0,-1.4568 -1.24868,-2.35863 -1.214,-0.90182 -3.46856,-1.31805 l -6.41684,-1.24868 q -5.34159,-1.04057 -8.11644,-3.74604 -2.77484,-2.70549 -2.77484,-6.93713 0,-3.46856 1.87302,-6.06998 1.90771,-2.60143 5.37627,-4.02354 3.50325,-1.4221 8.28985,-1.4221 4.75195,0 8.28987,1.52616 3.53794,1.49148 5.51502,4.26634 2.01176,2.77485 2.11582,6.59025 h -9.46918 q -0.0346,-2.21987 -1.73427,-3.67666 -1.6996,-1.4568 -4.43976,-1.4568 -2.63611,0 -4.12759,1.14463 -1.49148,1.10993 -1.49148,2.74016 0,1.4221 1.17931,2.32394 1.17931,0.90181 3.26045,1.35274 l 6.93712,1.35273 q 5.5497,1.07526 8.15112,3.53794 2.6361,2.42799 2.6361,6.48621 0,3.64198 -2.08113,6.38215 -2.04646,2.70547 -5.72312,4.23164 -3.642,1.49149 -8.42861,1.49149 z m 26.7773,-0.27748 q -2.42799,0 -4.16227,-1.6996 -1.69959,-1.73429 -1.69959,-4.19697 0,-2.46268 1.69959,-4.16227 1.73428,-1.73428 4.16227,-1.73428 2.46268,0 4.16228,1.73428 1.73428,1.69959 1.73428,4.16227 0,2.46268 -1.73428,4.19697 -1.6996,1.6996 -4.16228,1.6996 z m 23.51685,0 q -3.64199,0 -6.48621,-1.21401 -2.84423,-1.214 -4.47445,-3.64199 -1.63022,-2.46268 -1.63022,-6.10467 0,-3.08701 1.14462,-5.13347 1.14462,-2.08113 3.12171,-3.32981 2.01176,-1.28338 4.57849,-1.94239 2.60144,-0.65903 5.44565,-0.90184 3.36451,-0.34685 5.34159,-0.65902 1.97708,-0.31217 2.84421,-0.90183 0.86714,-0.58965 0.86714,-1.76897 v -0.24279 q 0,-1.35274 -0.72839,-2.35863 -0.7284,-1.04057 -2.08114,-1.63022 -1.31806,-0.58965 -3.19107,-0.58965 -1.87303,0 -3.32982,0.58965 -1.42211,0.58965 -2.25456,1.66491 -0.83246,1.07525 -0.9712,2.49737 h -9.60792 q 0.24279,-3.78073 2.21987,-6.55558 2.01177,-2.77486 5.61907,-4.26634 3.60731,-1.52616 8.63673,-1.52616 3.74604,0 6.69432,0.86713 2.94828,0.83246 4.96004,2.46268 2.04645,1.63023 3.08702,3.95416 1.04057,2.32394 1.04057,5.27221 v 24.8349 h -9.98945 v -5.16815 h -0.13875 q -0.9712,1.80366 -2.39331,3.08702 -1.4221,1.28337 -3.46856,2.01177 -2.04646,0.69372 -4.85598,0.69372 z m 2.84421,-7.11056 q 2.46268,0 4.23166,-0.90183 1.80365,-0.90182 2.77484,-2.46268 0.9712,-1.56085 0.9712,-3.53793 v -3.67668 q -0.45092,0.24281 -1.17931,0.4856 -0.72841,0.20812 -1.6996,0.41624 -0.9712,0.17342 -2.11582,0.38153 -1.14463,0.20812 -2.35863,0.38155 -1.76896,0.27748 -3.19107,0.86714 -1.4221,0.55496 -2.25456,1.52616 -0.83246,0.93652 -0.83246,2.39331 0,1.28337 0.69371,2.21988 0.69371,0.93651 1.97708,1.42211 1.28338,0.4856 2.98296,0.4856 z m 25.21645,6.4862 v -36.628 h 10.23226 v 36.628 z m 5.09879,-41.24119 q -2.53206,0 -4.19697,-1.52617 -1.66491,-1.56085 -1.66491,-3.91947 0,-2.35862 1.66491,-3.88479 1.66491,-1.56086 4.16228,-1.56086 2.53205,0 4.19695,1.56086 1.66491,1.52617 1.66491,3.88479 0,2.35862 -1.66491,3.91947 -1.6649,1.52617 -4.16226,1.52617 z"
       id="text8"
       style="font-size:59.2648px;font-family:Inter;-inkscape-font-specification:'Inter, @opsz=32,wght=700';font-variation-settings:'opsz' 32, 'wght' 700;fill:#5e1b68;stroke-width:5.91965"
       aria-label="lilaas.ai" /></g></svg>
