<?xml version="1.0" encoding="UTF-8" standalone="no"?>
<!-- Created with Inkscape (http://www.inkscape.org/) -->

<svg
   width="710.1969"
   height="610.96124"
   viewBox="0 0 187.90626 161.65017"
   version="1.1"
   id="svg1"
   xml:space="preserve"
   xmlns="http://www.w3.org/2000/svg"
   xmlns:svg="http://www.w3.org/2000/svg"><defs
     id="defs1" /><g
     id="layer1"
     transform="translate(143.00097,-748.58494)"><path
       style="fill:#5e1b68;fill-opacity:1;stroke-width:0.621412"
       d="m -30.617433,908.87863 c 1.2593,-1.90948 3.38716,-6.2926 4.06768,-8.37895 0.62135,-1.90499 1.27554,-4.69269 1.593,-6.78842 0.36613,-2.41723 0.2312,-7.57069 -0.25915,-9.87116 -0.069,-0.32456 -0.19613,-0.33625 -3.98183,-0.37421 -5.96846,-0.0598 -10.57317,-0.41504 -15.50179,-1.19614 -4.58141,-0.72605 -7.65929,-1.60099 -11.11221,-3.1588 -6.44719,-2.90876 -10.80899,-7.089 -13.10775,-12.56222 -1.38202,-3.29048 -1.92289,-5.98044 -1.92122,-9.55516 0.002,-10.81806 6.91004,-21.23331 22.19518,-33.47834 1.03994,-0.83311 4.18437,-3.24241 6.98767,-5.35406 8.45984,-6.37255 11.96409,-9.28743 16.50331,-13.72765 5.91653,-5.7875 9.73342,-10.80585 12.50516,-16.44154 2.63476,-5.35724 3.6560502,-9.52173 3.6490002,-14.87966 -0.009,-7.25299 -2.5280302,-13.66827 -7.3356202,-18.68575 -0.40795,-0.42576 -0.74171,-0.79095 -0.74171,-0.81151 0,-0.0437 -0.12693,-0.0712 3.12388,0.67672 5.0604302,1.16465 9.8429702,2.66234 14.13974023,4.42804 2.55008997,1.04792 8.52967997,3.96769 10.31157977,5.03503 14.52849,8.70253 24.29758,19.78273 29.94596,33.96499 3.00402,7.54256 4.45805,15.15692 4.4618,23.36547 0.002,10.01037 -2.05271,18.95308 -6.32508,27.49383 -4.99733,9.99008 -12.88051,18.76193 -22.36574,24.88705 -0.81996,0.52945 -1.15882,0.90787 -2.02797,2.26468 -4.10149,6.4027 -11.0630298,13.87216 -18.2534498,19.58524 -5.60315,4.45189 -13.6139602,9.26232 -20.4118702,12.25717 -2.21458,0.97562 -6.56838,2.66177 -6.87298,2.66177 -0.0882,0 0.24207,-0.6104 0.73425,-1.35642 z m 15.51805,-14.59288 c 9.5068502,-5.9524 18.2783702,-14.60749 24.0263602,-23.70745 1.1135498,-1.76296 1.4573998,-2.18356 2.0143698,-2.46386 0.88224,-0.44405 4.31935,-2.74654 5.73768,-3.84365 6.87341,-5.3167 13.16294,-13.44101 16.62804,-21.47861 2.20351,-5.11129 3.45496,-9.85179 4.2234,-15.99809 0.33764,-2.7022 0.24733,-9.20235 -0.17133,-12.3312 -0.92598,-6.91643 -2.50507,-12.13097 -5.5266,-18.25014 -4.85849,-9.83921 -12.05901,-17.91038 -21.37036,-23.95428 -3.6480598,-2.36792 -9.2488398,-5.37971 -12.2149698,-6.56849 -1.95438,-0.78329 -5.78855,-2.11802 -5.78855,-2.01503 0,0.0506 0.21509,0.70232 0.47866,1.4482 1.01366,2.87189 1.37022,4.97351 1.45315,8.56464 0.0866,3.74891 -0.13532,5.85377 -0.96391,9.14625 -2.58109,10.25554 -10.9040602,21.20274 -24.9910502,32.87075 -1.14053,0.94467 -3.57607,2.90138 -5.41226,4.34822 -7.86181,6.19468 -10.76469,8.68797 -14.63001,12.5659 -3.3972,3.40833 -5.10395,5.45497 -7.27373,8.72251 -2.34143,3.52602 -3.7988,6.92107 -4.51504,10.51809 -0.40717,2.0446 -0.40005,6.54038 0.0154,8.31096 0.77333,3.31409 2.17317,5.97591 4.26576,8.11159 3.67456,3.75019 8.07497,5.67443 15.65041,6.84369 4.37793,0.67569 6.06681,0.7733 14.90696,0.8615 l 8.49474,0.0851 0.50735,1.42088 c 0.65055,1.82213 1.40573,4.75186 1.7648,6.84669 0.48818,2.84839 0.36168,9.50419 -0.21849,11.49319 -0.10362,0.355 -0.25417,0.43495 2.91156,-1.54705 z m -76.19729,-16.14419 c -3.17875,-0.29545 -7.53084,-1.69604 -10.137747,-3.26288 -4.21397,-2.53266 -7.29975,-5.74908 -9.52546,-9.92876 l -0.98095,-1.84218 -1.27651,0.23398 c -2.06053,0.37745 -6.1641,0.32458 -8.38837,-0.10822 -5.9961,-1.16677 -11.39016,-4.32222 -15.24847,-8.92013 -4.04267,-4.81767 -5.89354,-9.71675 -6.11542,-16.18748 -0.10561,-3.07464 0.0368,-4.52442 0.70574,-7.18807 0.59432,-2.3665 1.93711,-5.53217 3.11116,-7.33462 l 0.38456,-0.59035 -0.80439,-1.64415 c -2.38376,-4.87261 -2.50387,-11.34534 -0.30477,-16.41664 0.77593,-1.78923 2.52277,-4.31189 4.00497,-5.78369 1.50215,-1.49167 2.92889,-2.48938 5.14223,-3.59582 l 1.52084,-0.7603 v -1.29211 c 0,-3.44535 1.37618,-7.50127 3.63285,-10.70693 1.72846,-2.45535 4.79815,-5.09497 7.55607,-6.49745 1.89459,-0.96345 5.49762,-1.96045 7.54794,-2.08853 0.71158,-0.0447 0.73739,-0.0651 0.86842,-0.69989 0.1977,-0.95809 1.62182,-3.84798 2.57348,-5.22261 2.73091,-3.94471 7.267497,-6.94812 12.020497,-7.95809 1.82696,-0.38824 6.17689,-0.40706 7.67233,-0.0319 l 1.0143,0.25357 0.78678,-1.08474 c 3.00973,-4.14951 8.65134,-7.75755 14.11943,-9.02989 5.62122,-1.30793 11.80793,-0.50117 17.0522,2.22357 l 1.78115,0.92546 0.44825,-0.4205 c 1.14353,-1.07254 4.15291,-2.6488 6.4495,-3.37809 3.24876,-1.03168 5.89005,-1.36263 9.2961,-1.16475 3.16355,0.1837 5.77192,0.86058 8.71206,2.26053 7.03931,3.35181 11.70329,9.66667 13.06967,17.6958 0.54857,3.22346 0.34722,7.68056 -0.49497,10.95728 -1.57704,6.13567 -5.30759,12.66321 -10.50625,18.38333 -4.8741,5.36306 -8.50475,8.50166 -19.16297,16.56584 -7.29299,5.51803 -9.92292,7.61448 -13.32705,10.62399 -4.43073,3.91708 -9.02249,8.82051 -11.37425,12.14633 l -0.66508,0.94059 -0.43698,-1.02278 c -1.141,-2.67058 -3.12561,-4.43802 -6.12805,-5.45743 -0.10429,-0.0354 0.46264,-0.725 1.26008,-1.53231 1.25218,-1.26782 1.56179,-1.70085 2.27106,-3.17622 1.05016,-2.18451 1.264,-3.09749 1.24718,-5.3254 -0.009,-1.49538 -0.0878,-2.02488 -0.44176,-3.05755 -0.59279,-1.72936 -1.4421,-3.10878 -2.61818,-4.25248 -1.15069,-1.11905 -2.34582,-1.80041 -4.02923,-2.29726 -1.42086,-0.41933 -2.01865,-0.88679 -2.58344,-2.02015 -0.58644,-1.17685 -0.56506,-2.28684 0.0815,-4.24986 1.51019,-4.58262 -0.37928,-9.78708 -4.71644,-12.99109 -1.83812,-1.3579 -4.4852,-2.41264 -6.45064,-2.57024 l -1.20749,-0.0969 -0.54404,-1.19379 c -1.41675,-3.10886 -4.01544,-5.82581 -6.988107,-7.3061 -0.58777,-0.29263 -1.09016,-0.55104 -1.11642,-0.57413 -0.0248,-0.0248 0.064,-0.79056 0.2011,-1.7055 0.54472,-3.64327 1.88692,-6.38391 4.306367,-8.7933 1.72612,-1.71893 4.06857,-3.16228 6.47401,-3.98907 l 0.90431,-0.31076 -0.6293,-0.0519 c -0.90752,-0.0748 -2.77396,0.24674 -4.21063,0.72488 -3.81538,1.27002 -6.636597,4.19849 -7.904897,8.20539 -0.26939,0.85053 -0.38647,1.72052 -0.44905,3.33365 -0.0738,1.91025 -0.11792,2.173 -0.35075,2.10482 -1.98932,-0.58236 -5.54598,-0.62496 -7.68386,-0.0923 -3.25037,0.81021 -6.08898,2.68756 -8.19914,5.4228 -0.94339,1.22287 -2.55944,4.48568 -2.33358,4.71156 0.0319,0.0319 0.3292,-0.33906 0.66212,-0.82254 0.76971,-1.11764 2.69467,-2.97789 3.97063,-3.83725 5.41792,-3.64894 12.27774,-3.72953 17.03866,-0.20017 0.61701,0.45741 1.449267,1.19583 1.849467,1.64097 0.99188,1.10318 1.97827,2.61887 1.80558,2.77436 -0.0779,0.0703 -0.51165,0.21599 -0.96383,0.32386 -3.500807,0.83591 -6.712307,3.9157 -7.797577,7.47769 -0.18993,0.62415 -0.32031,1.16042 -0.28894,1.19175 0.0319,0.0319 0.29267,-0.27155 0.58104,-0.6729 2.34521,-3.26568 6.448127,-5.37134 10.547087,-5.41286 1.75773,-0.0185 2.80557,0.20018 4.61722,0.96189 2.56636,1.07862 4.36811,2.74641 5.48703,5.07899 1.19523,2.4916 1.34357,3.97577 0.6501,6.50563 -0.81349,2.96793 -0.39505,5.35944 1.25017,7.14431 0.67045,0.72732 2.39618,1.74306 2.96147,1.74306 0.48959,0 2.52383,1.11132 3.06802,1.67608 2.54719,2.64346 2.91257,7.34918 0.83652,10.77453 -1.15761,1.91012 -3.32733,3.6648 -5.35713,4.33248 -3.27716,1.07798 -5.24851,2.83377 -6.23594,5.5541 -0.35112,0.96696 -0.69067,2.98283 -0.50263,2.98283 0.0444,0 0.35004,-0.54529 0.67951,-1.21171 0.71749,-1.4518 2.39006,-3.12787 3.86366,-3.87171 2.61094,-1.31799 5.56823,-1.33718 8.21717,-0.0533 1.32325,0.6413 3.16276,2.43773 3.83895,3.74894 l 0.54837,1.06333 -0.47907,0.86097 c -2.77134,4.98082 -4.08459,8.86346 -4.54533,13.43876 -0.57001,5.66003 0.95485,11.88905 4.02491,16.44159 l 0.94247,1.39752 -0.71134,0.62154 c -3.56876,3.11811 -8.92806,5.35002 -14.08758,5.86675 -1.93907,0.19427 -3.03713,0.18869 -5.3526,-0.0248 z m 6.06881,-6.31181 c 1.61481,-0.32137 5.01228,-1.45953 4.82692,-1.61698 -0.0319,-0.028 -0.61377,0.0185 -1.29197,0.0985 -1.6204,0.1949 -5.07408,0.0185 -7.2343,-0.36919 -6.55508,-1.17765 -12.169627,-4.64249 -16.560007,-10.21931 -0.77232,-0.98108 -1.43602,-1.75195 -1.47495,-1.7131 -0.14214,0.14216 0.81051,2.68813 1.45458,3.88716 0.87889,1.63623 1.9251,3.08314 3.24666,4.49023 4.259407,4.53493 10.912527,6.66088 17.033067,5.44271 z m -28.115087,-14.72066 0.82208,-0.20421 -1.64415,-0.20204 c -4.13749,-0.50864 -7.72739,-1.79907 -10.93364,-3.93022 -1.60491,-1.06676 -4.66271,-4.10613 -5.71003,-5.67556 -1.72733,-2.5885 -2.97661,-5.52969 -3.51218,-8.26866 -0.74835,-3.82742 -0.73707,-7.44658 0.0319,-10.45829 0.1713,-0.67058 0.27931,-1.25156 0.23958,-1.29112 -0.14152,-0.14152 -1.27374,2.32547 -1.83066,3.98982 -2.4028,7.18069 -0.52216,15.09516 4.86774,20.48499 2.88798,2.88804 6.68744,4.96792 10.33701,5.65866 1.48312,0.28057 6.04481,0.21663 7.33148,-0.1033 z m -0.83949,-12.3788 c 0.68466,-1.16831 0.95871,-2.42434 0.89605,-4.10691 l -0.0569,-1.51767 0.98651,0.23122 c 1.53941,0.36067 4.42486,0.19146 6.11865,-0.35888 2.74878,-0.89315 5.09304,-2.95259 6.391447,-5.61492 0.39896,-0.81803 0.72536,-1.5484 0.72536,-1.62303 0,-0.0748 -0.49114,0.39469 -1.091407,1.04304 -2.64052,2.85201 -5.56319,4.17181 -9.26677,4.18458 -2.24636,0.007 -3.32037,-0.27249 -6.27757,-1.63913 -2.31362,-1.06903 -3.44597,-1.38305 -4.97838,-1.38046 -2.0715,0.002 -3.66351,0.62373 -5.10845,1.99034 -0.79679,0.75356 -2.05622,2.82455 -1.84575,3.03503 0.0503,0.0502 0.44334,-0.28553 0.87386,-0.74571 0.50958,-0.54483 1.21522,-1.05058 2.0222,-1.4494 1.21554,-0.60077 1.27628,-0.61259 3.14732,-0.61259 1.87521,0 1.92927,0.009 3.16279,0.62022 2.09212,1.03396 3.42482,2.9364 3.72354,5.31523 0.14554,1.15806 -0.007,2.7893 -0.31539,3.36453 -0.49125,0.91795 0.31112,0.25698 0.89253,-0.73549 z m -17.4098,-23.44909 c -1.57527,-3.93795 -1.70352,-9.10316 -0.31749,-12.78561 0.97433,-2.58853 3.48318,-5.76591 5.88403,-7.45195 1.27518,-0.89556 1.13072,-1.01245 -0.56669,-0.45849 -2.15098,0.70198 -3.58112,1.58276 -5.16514,3.18107 -1.6973,1.71258 -2.45154,2.98301 -3.12939,5.27093 -0.37197,1.25569 -0.43864,1.79102 -0.43991,3.53498 -9.3e-4,2.49375 0.34367,3.99108 1.42339,6.16557 0.64121,1.29165 2.65409,4.15025 2.81154,3.9928 0.0319,-0.0319 -0.19398,-0.68336 -0.50038,-1.4493 z m 25.89466,-1.98873 c 0.67817,-0.17284 1.75098,-0.55991 2.38401,-0.86043 l 1.15088,-0.54639 -2.05689,0.0767 c -5.11335,0.19087 -9.16646,-1.21719 -12.0966,-4.20242 -1.15853,-1.18035 -1.74283,-2.0203 -2.45666,-3.53176 -0.91786,-1.94357 -1.13683,-3.0274 -1.13759,-5.63026 -5.6e-4,-1.90207 0.064,-2.52823 0.3726,-3.60547 0.77982,-2.72355 2.43746,-5.31486 4.8597,-7.59693 0.80297,-0.75648 1.39484,-1.37435 1.31534,-1.37304 -0.3778,0.007 -3.54694,1.67922 -4.44663,2.34747 -6.10969,4.53802 -7.06879,13.9701 -2.05362,20.19588 3.39572,4.2155 8.92627,6.0609 14.16546,4.72665 z m 60.282797,-15.30346 c 0.32136,-4.9654 -2.1636,-9.27439 -6.55542,-11.36759 -1.07628,-0.51298 -1.408,-0.745 -1.32966,-0.93011 1.20596,-2.84966 1.16308,-4.95532 -0.15144,-7.43854 -0.46999,-0.88781 -1.97507,-2.59081 -2.28974,-2.59081 -0.0788,0 0.0378,0.27746 0.25915,0.61655 1.39393,2.13664 1.55362,5.28817 0.37981,7.49626 -0.73504,1.38265 -1.28671,1.75216 -2.61627,1.75216 -1.28721,0 -3.23677,0.47466 -4.42744,1.07806 -2.03392,1.03066 -3.9793,2.91729 -4.96273,4.81295 -0.5937,1.14426 -1.02208,2.3002 -0.89834,2.42394 0.0397,0.0397 0.43076,-0.37499 0.86911,-0.92149 1.59479,-1.98833 4.0206,-3.57047 6.58172,-4.29256 1.72774,-0.4871 4.55544,-0.49619 6.18544,-0.0218 2.24668,0.65655 4.62508,2.33929 5.96966,4.22348 1.35504,1.89893 2.54169,4.98925 2.55582,6.65593 0.009,1.17998 0.32915,0.0696 0.43048,-1.49842 z m -45.90396,-20.89682 c 1.00681,-2.27654 2.42222,-4.3087 4.41434,-6.33795 1.88059,-1.91558 3.60948,-3.16951 5.93193,-4.30239 3.71968,-1.81443 7.46498,-2.45962 11.40778,-1.96525 2.77679,0.34829 5.89887,1.34897 8.0949,2.59487 1.49265,0.84684 1.50685,0.84091 0.49326,-0.207 -2.57036,-2.6574 -6.14083,-4.46285 -10.11862,-5.11656 -2.09004,-0.34369 -5.0346,-0.23837 -6.8836,0.24578 -0.71532,0.18714 -1.3266,0.34049 -1.35849,0.34049 -0.15021,0 1.13139,-2.31431 1.69503,-3.06144 1.97925,-2.62339 4.33784,-4.56176 7.1825,-5.90275 1.81971,-0.8579 3.05063,-1.27804 4.79257,-1.63587 0.72079,-0.14805 1.34351,-0.30228 1.38381,-0.34264 0.1468,-0.14678 -4.03985,-0.0661 -5.07838,0.098 -6.01365,0.95065 -11.23629,5.42043 -13.06213,11.1792 -0.33872,1.06782 -0.40315,1.15097 -1.42942,1.83914 -3.18927,2.13865 -5.33591,4.82167 -6.79689,8.4953 -0.51817,1.30294 -1.22684,4.02693 -1.2344,4.74477 -0.002,0.41336 0.18933,0.18559 0.56581,-0.66607 z m 61.65765,-4.97055 c 1.45951,-0.38017 2.51104,-1.01619 3.82704,-2.31481 1.31082,-1.29347 2.11658,-2.7356 2.60547,-4.66323 0.40216,-1.58561 0.25015,-4.44849 -0.32208,-6.07025 -1.60325,-4.54352 -5.48355,-7.62324 -10.91402,-8.66225 -1.88319,-0.36032 -6.04954,-0.27124 -5.43833,0.11633 0.12004,0.0761 0.41359,0.13935 0.65236,0.1409 1.38536,0.007 5.61666,1.47912 7.53859,2.62093 4.43163,2.63275 6.91972,7.30341 6.06751,11.38989 -0.59495,2.85292 -2.95156,5.20012 -5.51902,5.49701 -0.82657,0.0956 -0.98075,0.0533 -3.42434,-0.93067 -1.07489,-0.43304 -1.542,-0.53008 -2.55526,-0.53104 -2.19013,-9.4e-4 -3.91431,0.67553 -5.45271,2.14289 -1.09507,1.04459 -1.23516,1.37913 -0.32525,0.77703 2.30713,-1.52681 5.3466,-1.56342 8.55124,-0.10308 0.78441,0.35743 1.57419,0.6846 1.75506,0.72703 0.70458,0.16542 2.0299,0.10372 2.9537,-0.13656 z"
       id="path3" /></g></svg>
